<svg width="15" height="15" viewBox="0 0 15 15" fill="none" xmlns="http://www.w3.org/2000/svg">
<path fill-rule="evenodd" clip-rule="evenodd" d="M6.16666 0.666656C3.12909 0.666656 0.666656 3.12909 0.666656 6.16666C0.666656 9.20422 3.12909 11.6667 6.16666 11.6667C7.5054 11.6667 8.73244 11.1883 9.68618 10.3933L13.4798 14.1869C13.675 14.3821 13.9916 14.3821 14.1869 14.1869C14.3821 13.9916 14.3821 13.675 14.1869 13.4798L10.3933 9.68618C11.1883 8.73244 11.6667 7.5054 11.6667 6.16666C11.6667 3.12909 9.20422 0.666656 6.16666 0.666656ZM1.66666 6.16666C1.66666 3.68138 3.68138 1.66666 6.16666 1.66666C8.65194 1.66666 10.6667 3.68138 10.6667 6.16666C10.6667 8.65194 8.65194 10.6667 6.16666 10.6667C3.68138 10.6667 1.66666 8.65194 1.66666 6.16666Z" fill="#898E9A"/>
</svg>
